<svg id="svg" version="1.1" xmlns="http://www.w3.org/2000/svg" xmlns:xlink="http://www.w3.org/1999/xlink" width="400" height="401.9704433497537" viewBox="0, 0, 400,401.9704433497537"><g id="svgg"><path id="path0" d="M311.900 121.425 C 311.335 122.006,311.602 123.126,313.434 127.860 C 316.618 136.089,321.494 151.089,323.360 158.400 C 327.738 175.546,328.140 177.357,330.585 191.000 C 332.279 200.447,334.379 218.252,334.413 223.449 C 334.426 225.527,335.080 226.800,336.132 226.800 C 337.210 226.800,342.134 223.868,341.732 223.465 C 341.586 223.319,341.646 223.200,341.865 223.200 C 342.321 223.200,346.076 220.806,346.445 220.281 C 346.579 220.089,346.798 219.992,346.932 220.066 C 347.065 220.140,347.542 219.885,347.992 219.500 C 348.441 219.115,348.905 218.800,349.022 218.800 C 349.139 218.800,349.720 218.350,350.313 217.800 C 350.907 217.250,351.629 216.800,351.920 216.800 C 352.210 216.800,352.360 216.659,352.254 216.487 C 352.147 216.315,352.677 215.752,353.430 215.235 C 354.184 214.719,354.800 214.140,354.800 213.948 C 354.800 213.757,355.004 213.600,355.253 213.600 C 355.503 213.600,356.088 213.179,356.553 212.664 C 357.019 212.149,358.075 211.227,358.900 210.616 C 359.725 210.005,360.400 209.370,360.400 209.205 C 360.400 209.040,361.660 207.635,363.200 206.083 C 364.740 204.531,366.000 203.079,366.000 202.857 C 366.000 202.635,366.360 202.340,366.800 202.200 C 367.240 202.060,367.600 201.683,367.600 201.360 C 367.600 201.038,367.870 200.671,368.200 200.545 C 368.530 200.418,368.800 200.104,368.800 199.846 C 368.800 199.589,369.295 198.909,369.900 198.335 C 371.496 196.823,372.000 196.116,372.000 195.393 C 372.000 195.041,372.175 194.861,372.388 194.993 C 372.602 195.125,372.888 194.789,373.024 194.246 C 373.160 193.703,373.616 192.948,374.036 192.567 C 374.456 192.187,374.800 191.661,374.800 191.399 C 374.800 191.137,375.160 190.507,375.600 190.000 C 376.040 189.493,376.400 188.835,376.400 188.539 C 376.400 188.242,376.535 188.000,376.700 187.999 C 376.865 187.999,377.532 187.144,378.183 186.099 C 378.833 185.055,379.524 184.090,379.717 183.955 C 379.910 183.821,380.075 183.551,380.082 183.355 C 380.090 183.160,380.254 182.583,380.448 182.074 C 380.642 181.565,380.800 181.053,380.800 180.937 C 380.800 180.821,381.160 180.269,381.600 179.709 C 382.040 179.150,382.400 178.266,382.400 177.746 C 382.400 177.226,382.536 176.800,382.702 176.800 C 382.869 176.800,383.239 176.215,383.525 175.500 C 383.811 174.785,384.293 173.660,384.595 173.000 C 385.124 171.847,385.521 170.646,385.653 169.800 C 385.688 169.580,386.129 168.185,386.634 166.700 C 387.139 165.215,387.451 164.000,387.327 164.000 C 387.203 164.000,387.310 163.749,387.565 163.442 C 387.820 163.135,387.993 162.730,387.951 162.542 C 387.908 162.354,388.015 161.874,388.189 161.474 C 388.564 160.613,387.970 159.173,386.475 157.321 C 384.907 155.378,376.796 147.200,376.438 147.200 C 376.270 147.200,375.358 146.484,374.410 145.609 C 373.462 144.734,372.352 143.912,371.943 143.782 C 371.534 143.652,371.200 143.378,371.200 143.173 C 371.200 142.968,370.949 142.800,370.643 142.800 C 370.336 142.800,369.985 142.538,369.863 142.219 C 369.740 141.899,368.866 141.136,367.920 140.522 C 366.974 139.909,366.110 139.316,366.000 139.204 C 365.702 138.900,364.408 138.138,362.500 137.144 C 361.565 136.657,360.800 136.110,360.800 135.929 C 360.800 135.748,360.350 135.600,359.800 135.600 C 359.250 135.600,358.800 135.420,358.800 135.200 C 358.800 134.980,358.543 134.800,358.229 134.800 C 357.914 134.800,357.412 134.575,357.112 134.300 C 356.315 133.570,355.101 132.811,354.300 132.542 C 353.915 132.412,353.600 132.148,353.600 131.953 C 353.600 131.759,353.184 131.600,352.676 131.600 C 352.169 131.600,351.404 131.336,350.976 131.013 C 350.549 130.690,349.795 130.420,349.300 130.413 C 348.805 130.406,348.400 130.234,348.400 130.032 C 348.400 129.829,347.825 129.537,347.123 129.383 C 346.420 129.229,345.610 128.867,345.323 128.580 C 345.035 128.293,343.810 127.836,342.600 127.565 C 341.390 127.294,340.400 126.921,340.400 126.736 C 340.400 126.551,339.961 126.400,339.424 126.400 C 338.887 126.400,338.342 126.230,338.214 126.023 C 338.086 125.816,337.131 125.533,336.091 125.396 C 335.051 125.258,333.840 124.989,333.400 124.798 C 332.274 124.310,327.511 123.200,326.541 123.200 C 326.097 123.200,325.609 123.075,325.456 122.923 C 325.304 122.771,324.779 122.591,324.290 122.524 C 323.800 122.457,322.230 122.240,320.800 122.041 C 319.370 121.842,317.930 121.670,317.600 121.659 C 317.270 121.647,315.920 121.521,314.600 121.377 C 313.280 121.233,312.065 121.255,311.900 121.425 M113.800 138.049 C 111.820 138.207,108.220 138.451,105.800 138.590 C 103.380 138.729,101.040 138.999,100.600 139.190 C 100.160 139.381,98.000 139.641,95.800 139.768 C 91.287 140.027,90.540 140.127,90.145 140.522 C 89.992 140.675,88.827 140.800,87.557 140.800 C 86.287 140.800,85.153 140.953,85.037 141.140 C 84.922 141.326,83.336 141.604,81.514 141.756 C 77.799 142.066,77.342 142.125,74.800 142.609 C 72.773 142.996,72.819 142.985,72.000 143.300 C 71.670 143.428,70.685 143.632,69.811 143.755 C 67.115 144.134,65.083 147.067,65.340 150.207 C 65.533 152.555,66.070 153.284,68.876 155.004 C 70.264 155.855,71.460 156.697,71.533 156.876 C 71.607 157.054,71.862 157.200,72.102 157.200 C 72.341 157.200,72.821 157.439,73.169 157.732 C 73.516 158.025,74.700 158.593,75.800 158.996 C 76.900 159.398,77.890 159.851,78.000 160.003 C 78.110 160.154,79.460 161.063,81.000 162.021 C 82.540 162.980,83.890 163.864,84.000 163.986 C 84.110 164.108,84.875 164.562,85.700 164.995 C 86.525 165.428,87.200 165.900,87.200 166.044 C 87.200 166.189,87.515 166.412,87.900 166.542 C 88.701 166.811,89.915 167.570,90.712 168.300 C 91.012 168.575,91.514 168.800,91.829 168.800 C 92.143 168.800,92.400 168.952,92.400 169.137 C 92.400 169.322,93.075 169.817,93.900 170.237 C 94.725 170.657,95.490 171.111,95.600 171.248 C 95.710 171.384,96.746 172.075,97.902 172.783 C 99.059 173.492,100.229 174.374,100.502 174.743 C 100.776 175.112,101.540 175.758,102.200 176.179 C 102.860 176.600,103.875 177.407,104.457 177.972 C 105.038 178.538,105.848 179.291,106.257 179.646 C 106.665 180.001,107.750 181.109,108.667 182.107 C 111.469 185.158,108.955 185.749,146.502 173.219 C 165.036 167.034,180.650 161.791,181.200 161.567 C 182.594 161.002,183.826 159.266,183.245 158.685 C 183.000 158.440,182.800 157.675,182.800 156.985 C 182.800 155.621,180.516 152.105,178.011 149.615 C 176.517 148.130,175.823 147.638,173.718 146.574 C 173.014 146.218,172.226 145.673,171.969 145.363 C 171.712 145.053,171.331 144.800,171.122 144.800 C 170.914 144.800,170.473 144.530,170.143 144.200 C 169.813 143.870,169.196 143.600,168.771 143.600 C 168.347 143.600,168.000 143.420,168.000 143.200 C 168.000 142.980,167.670 142.800,167.267 142.800 C 166.863 142.800,166.401 142.668,166.240 142.507 C 165.651 141.917,157.301 139.613,155.724 139.605 C 155.242 139.602,154.756 139.453,154.645 139.272 C 154.533 139.092,153.488 138.905,152.321 138.857 C 151.155 138.808,148.135 138.501,145.611 138.175 C 140.761 137.548,121.039 137.470,113.800 138.049 M76.300 195.082 C 75.475 195.173,74.800 195.394,74.800 195.572 C 74.800 195.750,74.035 196.000,73.100 196.128 C 70.853 196.435,70.482 196.536,68.600 197.355 C 67.720 197.738,66.505 198.153,65.900 198.276 C 65.295 198.399,64.800 198.658,64.800 198.850 C 64.800 199.043,64.350 199.200,63.800 199.200 C 63.250 199.200,62.800 199.380,62.800 199.600 C 62.800 199.820,62.558 200.000,62.262 200.000 C 61.966 200.000,61.201 200.451,60.562 201.002 C 59.923 201.554,59.066 202.112,58.657 202.243 C 58.249 202.374,57.619 202.722,57.257 203.016 C 56.896 203.310,55.790 204.193,54.800 204.978 C 53.810 205.763,52.783 206.584,52.517 206.803 C 52.251 207.021,51.891 207.206,51.717 207.213 C 51.188 207.236,49.600 208.699,49.600 209.164 C 49.600 209.404,49.370 209.600,49.088 209.600 C 48.807 209.600,48.317 209.960,48.000 210.400 C 47.683 210.840,47.193 211.200,46.912 211.200 C 46.630 211.200,46.400 211.440,46.400 211.732 C 46.400 212.025,45.950 212.506,45.400 212.800 C 44.850 213.094,44.400 213.575,44.400 213.868 C 44.400 214.160,44.175 214.412,43.900 214.426 C 43.625 214.440,42.988 214.935,42.484 215.526 C 41.980 216.117,40.855 217.387,39.984 218.349 C 39.113 219.312,38.400 220.226,38.400 220.382 C 38.400 220.537,37.950 220.906,37.401 221.200 C 36.851 221.494,36.486 221.819,36.589 221.922 C 36.836 222.170,35.348 224.260,33.722 225.950 C 33.007 226.692,32.315 227.637,32.184 228.050 C 32.053 228.462,31.765 228.800,31.544 228.800 C 31.013 228.800,30.000 229.830,30.000 230.371 C 30.000 230.607,29.832 230.800,29.627 230.800 C 29.422 230.800,29.131 231.205,28.981 231.700 C 28.831 232.195,28.389 232.960,28.000 233.400 C 27.611 233.840,27.169 234.605,27.019 235.100 C 26.869 235.595,26.578 236.000,26.373 236.000 C 26.168 236.000,26.000 236.270,26.000 236.600 C 26.000 236.930,25.849 237.200,25.664 237.200 C 25.041 237.200,24.417 239.187,24.660 240.398 C 24.792 241.059,25.148 241.600,25.450 241.600 C 25.753 241.600,26.000 241.761,26.000 241.958 C 26.000 242.411,32.200 245.600,33.079 245.600 C 33.439 245.600,33.618 245.715,33.478 245.856 C 33.337 245.996,33.982 246.484,34.911 246.939 C 35.840 247.395,36.801 247.963,37.047 248.202 C 37.293 248.441,38.283 248.877,39.247 249.170 C 41.840 249.959,43.600 250.787,43.600 251.219 C 43.600 251.428,43.960 251.600,44.400 251.600 C 44.840 251.600,45.200 251.780,45.200 252.000 C 45.200 252.220,45.637 252.400,46.171 252.400 C 46.706 252.400,47.413 252.670,47.743 253.000 C 48.073 253.330,48.615 253.600,48.948 253.600 C 49.281 253.600,49.651 253.760,49.772 253.955 C 49.893 254.150,50.623 254.428,51.396 254.573 C 52.168 254.718,52.800 254.969,52.800 255.131 C 52.800 255.293,53.295 255.466,53.900 255.516 C 54.505 255.566,55.060 255.786,55.134 256.006 C 55.208 256.225,55.419 256.312,55.604 256.197 C 55.789 256.083,56.359 256.152,56.870 256.351 C 57.382 256.550,58.520 256.996,59.400 257.342 C 61.007 257.974,62.266 258.244,65.600 258.673 C 66.590 258.800,67.580 259.044,67.800 259.215 C 68.253 259.566,74.279 260.112,77.600 260.103 C 78.810 260.100,80.009 260.264,80.264 260.468 C 80.555 260.700,80.826 260.682,80.988 260.419 C 81.131 260.189,82.092 259.992,83.124 259.983 C 84.156 259.973,85.720 259.806,86.600 259.612 C 92.353 258.341,93.705 257.972,95.334 257.230 C 96.336 256.774,97.346 256.400,97.578 256.400 C 97.810 256.400,98.000 256.220,98.000 256.000 C 98.000 255.780,98.255 255.600,98.567 255.600 C 98.878 255.600,99.193 255.433,99.267 255.230 C 99.340 255.026,99.650 254.801,99.956 254.730 C 101.802 254.299,102.909 252.380,102.693 249.989 C 102.442 247.226,100.499 238.124,99.931 237.053 C 99.311 235.885,99.917 235.601,105.259 234.554 C 141.589 227.433,162.449 211.505,140.766 207.442 C 131.680 205.740,112.635 207.461,99.305 211.190 C 94.584 212.511,94.649 212.540,93.848 208.700 C 91.438 197.145,90.742 195.381,88.481 195.098 C 86.641 194.868,78.326 194.857,76.300 195.082 M185.000 247.020 C 178.840 247.743,172.000 248.526,169.800 248.759 C 165.473 249.218,154.527 250.435,146.200 251.384 C 143.340 251.710,138.210 252.276,134.800 252.642 C 128.211 253.350,126.000 254.101,126.000 255.633 C 126.000 256.055,125.859 256.400,125.687 256.400 C 125.515 256.400,125.335 256.877,125.287 257.460 C 125.239 258.042,125.041 258.717,124.849 258.960 C 124.656 259.202,124.360 259.850,124.192 260.400 C 124.024 260.950,123.462 262.027,122.944 262.793 C 122.425 263.559,122.000 264.594,122.000 265.093 C 122.000 265.592,121.847 266.000,121.661 266.000 C 121.474 266.000,120.997 266.720,120.600 267.600 C 120.203 268.480,119.726 269.200,119.539 269.200 C 119.353 269.200,119.200 269.721,119.200 270.357 C 119.200 271.062,118.943 271.613,118.543 271.767 C 118.181 271.905,117.994 272.127,118.127 272.260 C 118.260 272.393,117.793 273.334,117.089 274.351 C 116.385 275.368,115.808 276.326,115.805 276.480 C 115.802 276.634,115.575 276.985,115.300 277.260 C 115.025 277.535,114.800 277.975,114.800 278.237 C 114.800 278.500,114.527 278.819,114.194 278.947 C 113.861 279.075,113.403 279.589,113.177 280.090 C 112.665 281.224,112.039 282.275,110.965 283.808 C 110.506 284.464,110.017 285.315,109.878 285.700 C 109.739 286.085,109.439 286.400,109.213 286.400 C 108.986 286.400,108.800 286.760,108.800 287.200 C 108.800 287.640,108.564 288.000,108.275 288.000 C 107.706 288.000,105.872 290.268,105.741 291.134 C 105.697 291.427,105.332 291.916,104.930 292.221 C 104.529 292.525,104.335 292.780,104.500 292.787 C 104.825 292.801,104.404 293.343,102.155 295.800 C 100.403 297.715,98.856 300.853,99.050 302.100 C 99.436 304.593,99.786 305.476,100.712 306.300 C 101.269 306.795,101.966 307.200,102.262 307.200 C 102.558 307.200,102.800 307.380,102.800 307.600 C 102.800 307.820,103.145 308.000,103.567 308.000 C 103.988 308.000,104.409 308.225,104.501 308.500 C 104.635 308.898,104.867 308.899,105.635 308.507 C 106.702 307.962,109.846 307.167,113.000 306.644 C 113.220 306.607,113.662 306.414,113.982 306.215 C 114.302 306.015,115.022 305.794,115.582 305.723 C 117.443 305.487,117.974 305.359,118.255 305.078 C 118.408 304.925,118.874 304.800,119.290 304.800 C 119.707 304.800,119.936 304.620,119.800 304.400 C 119.652 304.160,120.163 303.999,121.076 303.998 C 121.914 303.996,123.116 303.726,123.746 303.398 C 124.376 303.069,125.299 302.800,125.797 302.800 C 126.295 302.800,126.926 302.530,127.200 302.200 C 127.474 301.870,128.158 301.600,128.721 301.600 C 129.776 301.600,132.446 300.790,132.800 300.363 C 132.910 300.230,133.270 300.097,133.600 300.067 C 135.133 299.930,136.800 299.480,136.800 299.205 C 136.800 299.037,137.295 298.801,137.900 298.679 C 138.505 298.558,139.540 298.236,140.200 297.965 C 140.860 297.694,141.643 297.513,141.940 297.563 C 142.237 297.613,142.362 297.461,142.217 297.227 C 142.057 296.968,142.346 296.800,142.953 296.800 C 143.503 296.800,144.059 296.628,144.189 296.417 C 144.319 296.207,144.651 296.121,144.927 296.227 C 145.203 296.333,145.821 296.053,146.302 295.606 C 146.782 295.158,147.316 294.828,147.488 294.872 C 148.064 295.020,150.579 294.301,151.426 293.746 C 151.887 293.444,152.384 293.318,152.532 293.465 C 152.679 293.613,152.800 293.544,152.800 293.313 C 152.800 292.919,154.242 292.262,154.900 292.357 C 155.065 292.381,155.200 292.226,155.200 292.013 C 155.200 291.799,155.447 291.720,155.748 291.836 C 156.050 291.951,156.588 291.755,156.944 291.399 C 157.300 291.042,158.224 290.648,158.996 290.523 C 159.768 290.398,160.400 290.139,160.400 289.948 C 160.400 289.756,160.610 289.600,160.866 289.600 C 161.612 289.600,164.400 288.277,164.400 287.923 C 164.400 287.745,164.807 287.600,165.305 287.600 C 165.803 287.600,167.108 286.997,168.205 286.261 C 169.302 285.524,170.846 284.710,171.635 284.451 C 172.424 284.193,173.451 283.625,173.918 283.191 C 174.385 282.756,175.026 282.400,175.342 282.400 C 176.061 282.400,181.296 279.264,181.691 278.596 C 181.850 278.326,182.570 277.863,183.291 277.568 C 184.011 277.272,185.048 276.619,185.596 276.115 C 186.144 275.612,186.829 275.200,187.120 275.200 C 187.410 275.200,187.536 275.020,187.400 274.800 C 187.264 274.580,187.439 274.400,187.789 274.400 C 188.139 274.400,188.529 274.130,188.655 273.800 C 188.782 273.470,189.126 273.200,189.420 273.200 C 189.714 273.200,190.235 272.800,190.577 272.311 C 190.920 271.822,191.200 271.548,191.200 271.703 C 191.200 271.858,192.550 270.612,194.200 268.935 C 195.850 267.258,197.200 265.631,197.200 265.319 C 197.200 265.008,197.380 264.864,197.600 265.000 C 197.821 265.137,198.000 264.849,198.000 264.357 C 198.000 263.867,198.119 263.586,198.265 263.732 C 198.411 263.877,198.864 263.322,199.272 262.498 C 199.680 261.674,200.263 260.550,200.568 260.000 C 201.834 257.718,202.925 254.501,202.663 253.820 C 202.538 253.493,202.570 253.142,202.736 253.040 C 203.058 252.841,203.098 248.201,202.787 247.200 C 202.186 245.270,200.080 245.249,185.000 247.020 " stroke="none" fill="#da5307" fill-rule="evenodd"></path><path id="path1" d="M295.500 122.149 C 294.675 122.365,294.000 122.689,294.000 122.871 C 294.000 123.052,293.595 123.201,293.100 123.202 C 292.605 123.204,291.684 123.474,291.054 123.802 C 290.424 124.131,289.479 124.400,288.954 124.400 C 288.429 124.400,288.000 124.560,288.000 124.755 C 288.000 124.951,287.325 125.250,286.500 125.420 C 285.675 125.590,284.798 125.770,284.551 125.821 C 284.304 125.873,283.494 126.188,282.751 126.522 C 282.008 126.856,280.725 127.244,279.900 127.383 C 279.075 127.522,278.400 127.808,278.400 128.018 C 278.400 128.228,277.871 128.400,277.224 128.400 C 276.577 128.400,275.951 128.556,275.832 128.747 C 275.714 128.939,274.894 129.211,274.009 129.352 C 273.124 129.494,272.400 129.787,272.400 130.005 C 272.400 130.222,271.971 130.400,271.446 130.400 C 270.921 130.400,269.976 130.669,269.346 130.998 C 268.716 131.326,267.825 131.596,267.367 131.598 C 266.908 131.599,266.417 131.716,266.275 131.859 C 265.841 132.293,261.858 133.573,260.900 133.587 C 260.405 133.594,260.000 133.766,260.000 133.968 C 260.000 134.171,259.415 134.452,258.700 134.593 C 257.382 134.854,255.655 135.402,254.200 136.022 C 253.760 136.209,252.770 136.536,252.000 136.748 C 249.929 137.319,245.902 138.755,245.105 139.206 C 244.723 139.423,244.078 139.600,243.672 139.600 C 243.266 139.600,242.808 139.725,242.655 139.878 C 242.502 140.031,242.135 140.192,241.839 140.235 C 241.543 140.279,240.694 140.588,239.951 140.924 C 239.208 141.259,238.060 141.617,237.400 141.721 C 236.221 141.905,233.995 142.620,232.787 143.203 C 232.450 143.365,231.597 143.625,230.891 143.780 C 230.186 143.935,229.506 144.228,229.381 144.431 C 229.255 144.634,228.668 144.806,228.076 144.813 C 227.484 144.820,226.651 145.090,226.224 145.413 C 225.796 145.736,224.977 146.000,224.404 146.000 C 223.830 146.000,223.189 146.150,222.980 146.333 C 222.771 146.515,221.790 146.893,220.800 147.170 C 219.810 147.448,218.460 147.908,217.800 148.192 C 217.140 148.475,215.565 149.015,214.301 149.391 C 213.036 149.766,211.915 150.214,211.810 150.384 C 211.704 150.555,210.874 150.814,209.965 150.959 C 209.057 151.104,207.579 151.578,206.681 152.012 C 205.784 152.445,204.706 152.800,204.285 152.800 C 203.865 152.800,202.954 153.040,202.260 153.334 C 199.838 154.361,198.190 154.902,196.900 155.094 C 196.185 155.200,195.600 155.448,195.600 155.644 C 195.600 155.840,195.195 156.001,194.700 156.002 C 194.205 156.004,193.284 156.274,192.654 156.602 C 192.024 156.931,191.090 157.200,190.578 157.200 C 190.066 157.200,189.549 157.360,189.428 157.555 C 189.307 157.750,188.602 158.023,187.860 158.162 C 185.787 158.551,183.595 159.757,183.072 160.797 C 182.704 161.529,181.504 162.101,177.600 163.407 C 174.850 164.327,172.330 165.182,172.000 165.306 C 171.002 165.683,166.386 167.201,163.200 168.200 C 161.550 168.717,157.230 170.163,153.600 171.413 C 149.970 172.663,146.460 173.836,145.800 174.019 C 145.140 174.203,137.400 176.777,128.600 179.741 C 113.088 184.964,112.562 185.111,111.346 184.541 C 110.206 184.006,109.934 184.024,108.346 184.738 C 107.386 185.170,106.060 185.637,105.400 185.776 C 103.311 186.214,102.034 186.863,101.798 187.606 C 101.672 188.002,101.297 188.431,100.964 188.558 C 100.620 188.690,100.464 188.620,100.603 188.395 C 100.737 188.178,100.667 188.000,100.447 188.000 C 100.227 188.000,99.943 188.169,99.815 188.375 C 99.688 188.582,99.239 188.684,98.817 188.603 C 98.396 188.522,97.846 188.704,97.595 189.006 C 97.261 189.409,96.871 189.455,96.146 189.180 C 95.494 188.932,95.239 188.939,95.401 189.201 C 95.629 189.571,95.070 189.780,94.251 189.631 C 94.059 189.596,93.997 189.815,94.113 190.117 C 94.229 190.419,94.079 190.667,93.779 190.667 C 93.480 190.667,93.315 190.537,93.413 190.379 C 93.864 189.650,92.220 189.145,91.300 189.730 C 91.025 189.904,90.620 189.936,90.400 189.800 C 90.180 189.664,90.000 189.743,90.000 189.976 C 90.000 190.209,90.283 190.400,90.629 190.400 C 91.187 190.400,91.190 190.467,90.657 191.000 C 90.327 191.330,89.864 191.600,89.629 191.600 C 89.052 191.600,89.084 191.822,89.879 193.320 C 90.252 194.024,90.567 194.809,90.579 195.065 C 90.591 195.321,90.990 195.869,91.467 196.283 C 91.967 196.718,92.506 197.876,92.740 199.018 C 92.963 200.108,93.602 203.160,94.160 205.800 C 94.717 208.440,95.179 210.755,95.187 210.945 C 95.202 211.333,96.289 211.166,99.800 210.239 C 123.284 204.033,148.336 205.157,150.144 212.497 C 151.438 217.754,137.295 226.954,121.400 231.195 C 120.740 231.371,117.981 232.164,115.268 232.958 C 112.555 233.751,109.900 234.400,109.368 234.400 C 108.836 234.400,108.400 234.580,108.400 234.800 C 108.400 235.020,107.815 235.208,107.100 235.217 C 106.385 235.227,104.720 235.463,103.400 235.742 C 100.792 236.294,100.814 236.253,101.571 239.200 C 103.614 247.157,104.402 253.329,103.322 252.915 C 102.994 252.789,102.800 253.028,102.800 253.557 C 102.800 254.021,102.991 254.400,103.224 254.400 C 103.457 254.400,103.536 254.580,103.400 254.800 C 103.264 255.020,103.343 255.200,103.576 255.200 C 103.809 255.200,103.955 255.425,103.900 255.700 C 103.838 256.009,104.145 256.152,104.700 256.075 C 105.195 256.006,105.600 256.141,105.600 256.375 C 105.600 256.609,105.390 256.800,105.133 256.800 C 104.877 256.800,104.779 256.912,104.916 257.050 C 105.319 257.452,108.800 257.549,108.800 257.157 C 108.800 256.961,109.351 256.800,110.024 256.800 C 110.697 256.800,111.160 256.658,111.052 256.485 C 110.945 256.311,111.430 256.189,112.129 256.213 C 112.828 256.238,113.940 256.101,114.600 255.911 C 115.260 255.720,116.970 255.490,118.400 255.399 C 123.336 255.087,126.000 254.728,126.000 254.374 C 126.000 253.395,128.235 252.737,133.451 252.180 C 136.503 251.854,140.530 251.420,142.400 251.214 C 144.270 251.009,148.320 250.566,151.400 250.231 C 154.480 249.896,157.810 249.527,158.800 249.413 C 159.790 249.298,163.030 248.933,166.000 248.601 C 168.970 248.270,172.930 247.818,174.800 247.598 C 176.670 247.377,180.810 246.924,184.000 246.590 C 187.190 246.257,191.060 245.818,192.600 245.615 C 199.716 244.675,200.701 244.675,202.027 245.619 C 203.022 246.328,203.435 246.417,204.132 246.076 C 204.610 245.842,207.430 245.454,210.400 245.214 C 215.402 244.809,218.918 244.407,222.400 243.843 C 224.142 243.560,229.355 243.180,231.116 243.207 C 231.840 243.218,232.650 243.089,232.916 242.920 C 233.389 242.619,234.678 242.477,237.700 242.392 C 238.525 242.369,239.200 242.226,239.201 242.075 C 239.201 241.924,239.966 241.773,240.901 241.740 C 241.835 241.706,243.590 241.567,244.800 241.429 C 246.010 241.292,248.080 241.097,249.400 240.997 C 250.720 240.897,253.870 240.536,256.400 240.195 C 258.930 239.854,262.170 239.493,263.600 239.393 C 265.030 239.294,267.550 239.039,269.200 238.828 C 270.850 238.616,274.900 238.161,278.200 237.816 C 281.500 237.471,285.370 237.020,286.800 236.814 C 288.230 236.608,290.660 236.331,292.200 236.198 C 293.740 236.065,295.990 235.789,297.200 235.585 C 299.516 235.194,301.450 235.002,309.600 234.351 C 312.350 234.131,315.230 233.787,316.000 233.586 C 316.770 233.384,318.428 233.144,319.684 233.053 C 321.284 232.937,322.339 232.604,323.203 231.943 L 324.438 231.000 324.228 224.400 C 323.981 216.596,323.376 211.044,321.243 197.000 C 320.278 190.646,316.243 170.530,314.945 165.602 C 312.824 157.549,312.427 156.096,311.455 152.800 C 309.367 145.726,305.377 134.049,303.119 128.400 C 300.658 122.244,300.632 122.202,299.332 122.160 C 298.649 122.138,297.844 122.038,297.545 121.939 C 297.245 121.839,296.325 121.934,295.500 122.149 M262.674 157.378 C 290.068 163.184,298.065 197.950,275.848 214.651 C 256.448 229.234,228.178 217.475,224.797 193.418 C 221.758 171.788,241.597 152.911,262.674 157.378 M276.856 191.200 C 276.856 191.530,277.011 192.160,277.200 192.600 C 277.417 193.104,277.544 193.178,277.544 192.800 C 277.544 192.470,277.389 191.840,277.200 191.400 C 276.983 190.896,276.856 190.822,276.856 191.200 M275.467 196.326 C 275.105 196.726,274.718 197.671,274.606 198.426 L 274.403 199.800 274.835 198.400 C 275.073 197.630,275.551 196.685,275.896 196.300 C 276.241 195.915,276.434 195.600,276.324 195.600 C 276.214 195.600,275.828 195.927,275.467 196.326 M242.233 200.400 C 242.735 202.246,245.008 204.800,246.148 204.800 C 246.352 204.800,245.920 204.395,245.189 203.900 C 244.457 203.405,243.432 202.190,242.910 201.200 C 242.388 200.210,242.084 199.850,242.233 200.400 M273.646 201.316 C 273.571 202.479,272.128 205.012,270.175 207.410 C 268.916 208.956,268.403 209.920,268.521 210.525 C 268.685 211.368,268.693 211.366,268.746 210.461 C 268.775 209.945,269.481 208.749,270.314 207.803 C 272.239 205.615,274.111 202.195,273.875 201.294 C 273.707 200.654,273.689 200.655,273.646 201.316 M247.400 205.264 C 247.840 205.506,248.838 206.266,249.617 206.952 C 250.572 207.794,250.482 207.647,249.340 206.500 C 248.409 205.565,247.411 204.805,247.123 204.812 C 246.835 204.819,246.960 205.022,247.400 205.264 M251.600 208.579 C 251.600 208.689,252.140 209.059,252.800 209.400 C 253.460 209.741,254.000 209.931,254.000 209.821 C 254.000 209.711,253.460 209.341,252.800 209.000 C 252.140 208.659,251.600 208.469,251.600 208.579 M254.976 210.578 C 255.404 210.920,256.034 211.186,256.376 211.168 C 256.915 211.141,256.918 211.107,256.400 210.914 C 256.070 210.792,255.440 210.526,255.000 210.324 C 254.213 209.962,254.212 209.966,254.976 210.578 " stroke="none" fill="#c3dbe7" fill-rule="evenodd"></path><path id="path2" d="M251.791 157.567 C 229.329 161.182,217.598 186.753,229.713 205.691 C 244.376 228.614,278.844 223.862,286.957 197.800 C 293.692 176.161,274.277 153.948,251.791 157.567 M265.828 177.149 C 269.892 179.072,272.831 182.511,274.082 186.808 C 274.257 187.411,274.852 187.995,275.564 188.264 C 278.348 189.315,278.685 193.834,276.201 196.800 C 275.925 197.130,275.417 198.529,275.074 199.908 C 274.505 202.195,272.636 206.038,271.470 207.320 C 271.211 207.604,270.591 208.294,270.091 208.853 L 269.183 209.870 270.001 210.911 C 270.787 211.910,270.874 211.928,272.197 211.376 C 272.954 211.059,274.165 210.812,274.887 210.827 C 276.559 210.861,273.631 211.898,271.057 212.183 C 270.208 212.278,269.218 212.622,268.857 212.948 C 268.016 213.709,265.110 214.693,262.800 215.001 C 260.849 215.260,257.022 216.287,255.905 216.850 C 254.832 217.391,254.217 217.302,254.734 216.680 C 254.971 216.394,256.073 215.928,257.182 215.643 C 258.675 215.261,259.216 214.927,259.260 214.363 C 259.293 213.943,259.338 213.392,259.360 213.138 C 259.382 212.884,258.500 212.370,257.400 211.996 C 254.159 210.894,251.500 209.392,249.323 207.435 C 248.201 206.426,247.075 205.600,246.821 205.600 C 243.555 205.600,240.757 200.674,242.422 197.853 C 243.179 196.570,243.205 196.270,242.747 194.057 C 242.370 192.230,242.355 190.865,242.686 188.358 C 243.093 185.278,243.067 184.988,242.295 183.943 C 241.790 183.260,241.399 181.989,241.290 180.678 L 241.112 178.532 243.256 178.823 C 245.023 179.063,246.104 178.908,249.400 177.941 C 257.354 175.609,262.089 175.380,265.828 177.149 " stroke="none" fill="#2ca9d7" fill-rule="evenodd"></path><path id="path3" d="M308.135 120.877 C 308.940 121.170,309.399 121.161,309.715 120.845 C 310.042 120.518,309.740 120.408,308.580 120.432 C 307.018 120.463,307.013 120.468,308.135 120.877 M255.400 176.431 C 254.300 176.616,251.600 177.296,249.400 177.941 C 246.104 178.908,245.023 179.063,243.256 178.823 L 241.112 178.532 241.290 180.678 C 241.400 182.009,241.790 183.260,242.314 183.969 C 243.096 185.027,243.128 185.321,242.734 187.852 C 241.938 192.967,243.046 197.080,246.176 200.625 C 247.788 202.450,247.904 202.201,246.800 199.296 C 244.262 192.620,246.770 187.072,252.802 186.016 C 256.118 185.435,257.612 184.968,260.683 183.548 C 266.567 180.828,270.750 183.770,272.986 192.200 L 273.517 194.200 273.996 193.000 C 274.883 190.780,274.274 186.555,272.631 183.534 C 269.249 177.310,263.715 175.029,255.400 176.431 M263.867 193.067 C 263.345 193.588,263.611 195.086,264.343 195.748 C 264.968 196.314,265.158 196.333,265.542 195.869 C 266.470 194.752,264.865 192.068,263.867 193.067 M254.267 195.467 C 253.384 196.350,254.643 199.591,255.632 198.980 C 256.227 198.612,256.053 196.511,255.371 195.829 C 254.656 195.113,254.629 195.104,254.267 195.467 M271.800 211.578 C 269.713 212.566,270.366 212.584,273.600 211.629 C 275.844 210.966,276.008 210.858,274.800 210.841 C 274.030 210.830,272.680 211.162,271.800 211.578 M269.067 211.867 C 268.581 212.353,268.790 212.779,269.400 212.545 C 269.730 212.418,270.000 212.154,270.000 211.957 C 270.000 211.538,269.449 211.484,269.067 211.867 M258.600 215.218 C 257.500 215.613,256.307 215.950,255.949 215.968 C 255.187 216.005,254.031 217.200,254.756 217.200 C 255.006 217.200,255.523 217.038,255.905 216.840 C 256.287 216.642,257.711 216.152,259.068 215.750 C 260.426 215.349,261.450 214.881,261.345 214.710 C 261.107 214.327,261.056 214.336,258.600 215.218 " stroke="none" fill="#695341" fill-rule="evenodd"></path><path id="path4" d="M311.200 122.576 C 311.200 123.333,311.343 124.041,311.519 124.150 C 311.694 124.258,311.829 123.639,311.819 122.775 C 311.808 121.910,311.665 121.202,311.500 121.201 C 311.335 121.201,311.200 121.819,311.200 122.576 M312.258 125.598 C 312.400 126.147,312.850 127.317,313.259 128.198 C 313.667 129.079,313.885 129.351,313.742 128.802 C 313.600 128.253,313.150 127.083,312.741 126.202 C 312.333 125.321,312.115 125.049,312.258 125.598 M314.229 130.800 C 314.376 131.350,314.664 132.070,314.867 132.400 C 315.125 132.817,315.157 132.695,314.971 132.000 C 314.824 131.450,314.536 130.730,314.333 130.400 C 314.075 129.983,314.043 130.105,314.229 130.800 M315.221 133.433 C 315.257 134.056,319.945 147.426,319.973 146.986 C 319.988 146.759,319.014 143.628,317.810 140.030 C 315.818 134.078,315.162 132.407,315.221 133.433 M320.456 149.200 C 320.456 149.530,320.611 150.160,320.800 150.600 C 321.017 151.104,321.144 151.178,321.144 150.800 C 321.144 150.470,320.989 149.840,320.800 149.400 C 320.583 148.896,320.456 148.822,320.456 149.200 M321.444 152.800 C 321.580 153.570,321.854 154.470,322.051 154.800 C 322.477 155.510,322.068 153.437,321.539 152.200 C 321.308 151.660,321.277 151.856,321.444 152.800 M322.456 156.200 C 322.456 156.640,322.611 157.360,322.800 157.800 L 323.144 158.600 323.144 157.800 C 323.144 157.360,322.989 156.640,322.800 156.200 L 322.456 155.400 322.456 156.200 M323.450 160.000 C 323.590 160.770,323.861 161.760,324.054 162.200 C 324.294 162.749,324.324 162.561,324.150 161.600 C 324.010 160.830,323.739 159.840,323.546 159.400 C 323.306 158.851,323.276 159.039,323.450 160.000 M182.098 161.000 C 181.822 161.314,180.832 161.781,179.898 162.039 C 178.964 162.297,178.417 162.586,178.681 162.681 C 179.334 162.916,182.800 161.351,182.800 160.822 C 182.800 160.282,182.711 160.305,182.098 161.000 M173.104 164.286 C 170.741 165.086,168.879 165.812,168.966 165.899 C 169.151 166.084,178.000 163.212,178.000 162.966 C 178.000 162.666,177.449 162.815,173.104 164.286 M324.433 163.600 C 324.421 163.930,324.667 165.010,324.979 166.000 C 325.291 166.990,325.556 167.530,325.567 167.200 C 325.579 166.870,325.333 165.790,325.021 164.800 C 324.709 163.810,324.444 163.270,324.433 163.600 M165.089 166.894 C 163.818 167.344,162.862 167.795,162.964 167.897 C 163.168 168.101,168.400 166.436,168.400 166.167 C 168.400 165.856,167.409 166.074,165.089 166.894 M157.317 169.534 C 155.072 170.322,153.305 171.039,153.392 171.125 C 153.577 171.310,162.400 168.413,162.400 168.167 C 162.400 167.837,161.335 168.123,157.317 169.534 M325.646 168.800 C 325.627 169.350,325.787 170.070,326.000 170.400 C 326.494 171.164,326.494 170.342,326.000 168.800 L 325.680 167.800 325.646 168.800 M132.600 177.841 C 118.461 182.647,113.031 184.328,112.000 184.216 C 110.711 184.077,110.675 184.100,111.546 184.514 C 112.400 184.919,152.800 172.046,152.800 171.368 C 152.800 171.006,151.170 171.528,132.600 177.841 M326.468 171.800 C 326.462 172.240,326.611 172.960,326.800 173.400 C 327.238 174.419,327.238 173.368,326.800 172.000 C 326.543 171.196,326.477 171.157,326.468 171.800 M261.000 183.409 C 258.379 184.699,255.989 185.459,252.802 186.016 C 246.770 187.071,244.262 192.620,246.800 199.296 C 248.098 202.711,247.478 202.711,245.128 199.295 C 243.823 197.398,243.087 197.208,244.241 199.065 C 247.098 203.665,248.643 203.527,247.200 198.800 C 244.992 191.570,247.060 187.565,253.600 186.403 C 255.030 186.149,258.037 185.213,260.282 184.323 C 266.977 181.668,270.117 183.695,272.272 192.064 C 273.401 196.444,274.890 195.473,274.748 190.450 L 274.695 188.600 274.397 190.930 C 274.082 193.393,273.217 194.991,273.179 193.180 C 273.148 191.686,271.553 187.867,270.107 185.824 C 267.631 182.325,264.754 181.562,261.000 183.409 M262.946 190.945 L 261.847 191.890 262.707 192.350 C 263.428 192.736,263.633 192.685,263.983 192.032 C 264.212 191.604,264.783 191.132,265.252 190.983 C 265.923 190.771,265.987 190.637,265.553 190.362 C 264.678 189.808,264.123 189.932,262.946 190.945 M251.900 191.632 C 250.713 192.323,251.114 192.646,253.200 192.677 C 255.289 192.709,255.740 192.317,254.426 191.614 C 253.468 191.101,252.803 191.106,251.900 191.632 M253.784 195.227 C 253.639 195.461,253.628 195.761,253.760 195.893 C 253.892 196.025,254.000 195.923,254.000 195.667 C 254.000 194.721,255.199 195.238,255.829 196.455 C 256.350 197.464,256.387 197.910,256.017 198.723 C 255.608 199.619,255.627 199.676,256.178 199.218 C 257.041 198.502,256.955 197.105,255.971 195.854 C 255.104 194.752,254.232 194.502,253.784 195.227 M263.200 195.152 C 263.200 195.542,264.755 196.998,264.923 196.764 C 264.987 196.674,264.626 196.201,264.120 195.714 C 263.614 195.227,263.200 194.974,263.200 195.152 M90.400 196.214 C 90.400 196.332,90.648 196.827,90.951 197.314 C 91.484 198.171,92.418 201.843,93.848 208.700 C 94.443 211.551,94.649 212.001,95.368 212.005 C 96.507 212.013,102.858 210.324,102.613 210.079 C 102.504 209.971,100.874 210.296,98.989 210.803 C 94.971 211.883,95.096 211.963,94.253 207.800 C 92.401 198.661,91.600 196.000,90.704 196.000 C 90.537 196.000,90.400 196.096,90.400 196.214 M332.093 202.800 C 332.093 203.570,332.175 203.885,332.276 203.500 C 332.376 203.115,332.376 202.485,332.276 202.100 C 332.175 201.715,332.093 202.030,332.093 202.800 M261.600 204.789 C 259.187 205.589,258.538 205.928,259.365 205.958 C 260.708 206.006,264.628 204.885,265.789 204.120 C 267.124 203.240,265.479 203.503,261.600 204.789 M131.400 206.809 C 142.281 207.156,146.522 208.199,148.799 211.087 C 153.252 216.736,136.776 227.088,114.882 232.397 C 112.838 232.893,111.255 233.388,111.365 233.498 C 111.610 233.744,115.500 232.759,121.593 230.909 C 154.983 220.770,160.361 206.186,130.600 206.482 L 123.400 206.554 131.400 206.809 M116.874 207.294 C 115.265 207.507,114.032 207.766,114.135 207.868 C 114.337 208.070,122.492 207.205,122.767 206.953 C 123.038 206.704,120.015 206.879,116.874 207.294 M107.277 208.890 C 105.009 209.328,103.243 209.776,103.352 209.885 C 103.528 210.062,108.592 209.223,112.400 208.388 C 115.605 207.684,111.355 208.101,107.277 208.890 M332.893 209.200 C 332.893 209.970,332.975 210.285,333.076 209.900 C 333.176 209.515,333.176 208.885,333.076 208.500 C 332.975 208.115,332.893 208.430,332.893 209.200 M333.714 218.200 C 333.717 219.300,333.795 219.703,333.887 219.095 C 333.979 218.486,333.977 217.586,333.882 217.095 C 333.787 216.603,333.711 217.100,333.714 218.200 M334.120 223.600 C 334.120 224.810,334.195 225.305,334.287 224.700 C 334.378 224.095,334.378 223.105,334.287 222.500 C 334.195 221.895,334.120 222.390,334.120 223.600 M108.000 234.000 L 107.000 234.320 108.000 234.320 C 108.550 234.320,109.450 234.176,110.000 234.000 L 111.000 233.680 110.000 233.680 C 109.450 233.680,108.550 233.824,108.000 234.000 M102.886 234.974 C 99.969 235.548,99.360 235.977,99.931 237.053 C 100.455 238.041,102.346 246.748,102.747 250.017 C 103.011 252.172,103.114 252.421,103.371 251.518 C 103.578 250.787,103.212 248.285,102.239 243.787 C 100.348 235.047,100.209 235.805,103.800 235.226 C 105.450 234.960,106.800 234.665,106.800 234.571 C 106.800 234.311,105.653 234.429,102.886 234.974 M192.600 245.749 C 188.640 246.211,185.812 246.650,186.316 246.725 C 186.820 246.799,189.558 246.576,192.400 246.230 C 198.438 245.494,200.561 245.444,201.626 246.014 C 202.052 246.242,202.400 246.336,202.400 246.224 C 202.400 246.013,200.131 244.759,199.920 244.854 C 199.854 244.884,196.560 245.286,192.600 245.749 M179.200 247.246 C 177.550 247.435,175.930 247.661,175.600 247.748 C 174.252 248.105,178.051 247.898,181.600 247.420 C 185.835 246.850,183.898 246.710,179.200 247.246 M169.200 248.400 L 167.400 248.680 169.200 248.705 C 170.190 248.719,171.900 248.590,173.000 248.418 L 175.000 248.107 173.000 248.114 C 171.900 248.117,170.190 248.246,169.200 248.400 M160.600 249.420 L 157.000 249.934 160.400 249.718 C 162.270 249.599,164.610 249.365,165.600 249.198 L 167.400 248.894 165.800 248.900 C 164.920 248.903,162.580 249.137,160.600 249.420 M149.200 250.604 C 147.110 250.889,143.960 251.262,142.200 251.433 C 140.440 251.604,139.344 251.821,139.764 251.914 C 140.434 252.062,147.333 251.364,154.600 250.413 L 157.000 250.099 155.000 250.092 C 153.900 250.088,151.290 250.318,149.200 250.604 M131.264 252.590 C 128.277 252.994,127.354 253.280,126.664 254.017 L 125.800 254.939 127.000 254.182 C 127.805 253.673,129.911 253.206,133.400 252.763 C 136.260 252.400,137.790 252.099,136.800 252.094 C 135.810 252.089,133.319 252.312,131.264 252.590 " stroke="none" fill="#c19c88" fill-rule="evenodd"></path><path id="path5" d="M216.200 148.400 C 216.064 148.620,216.223 148.800,216.553 148.800 C 216.883 148.800,217.264 148.620,217.400 148.400 C 217.536 148.180,217.377 148.000,217.047 148.000 C 216.717 148.000,216.336 148.180,216.200 148.400 M183.280 159.680 C 183.016 159.944,182.800 160.385,182.800 160.660 C 182.800 160.935,182.485 161.360,182.100 161.603 C 181.672 161.874,181.626 161.988,181.981 161.896 C 182.300 161.814,182.881 161.173,183.273 160.473 C 184.036 159.106,184.038 158.922,183.280 159.680 M260.469 184.221 C 258.638 185.004,255.546 185.984,253.598 186.400 C 246.876 187.837,244.976 191.518,247.200 198.800 C 248.649 203.545,247.101 203.665,244.218 199.031 C 243.517 197.904,243.470 197.890,242.928 198.631 C 241.722 200.278,243.533 203.257,246.563 204.609 C 247.683 205.109,249.132 206.081,249.783 206.768 C 251.312 208.382,254.789 210.342,257.693 211.225 C 259.226 211.691,260.332 212.334,261.029 213.161 C 262.222 214.579,262.903 214.660,265.835 213.736 C 267.977 213.061,268.382 212.548,268.395 210.494 C 268.398 209.996,269.207 208.598,270.194 207.386 C 272.626 204.400,273.657 202.248,274.582 198.227 C 274.731 197.582,275.290 196.533,275.826 195.896 C 277.533 193.868,277.400 190.163,275.586 189.193 C 274.860 188.804,274.800 188.906,274.800 190.536 C 274.800 195.503,273.402 196.388,272.285 192.128 C 270.095 183.779,266.749 181.539,260.469 184.221 M265.511 190.337 C 265.879 190.570,265.710 190.807,264.911 191.179 C 263.813 191.691,263.810 191.701,264.672 192.097 C 265.773 192.602,266.568 194.478,266.238 195.792 C 265.701 197.931,263.200 196.440,263.200 193.981 C 263.200 192.927,262.993 192.405,262.500 192.213 C 261.882 191.973,261.932 191.827,262.922 190.971 C 264.107 189.946,264.676 189.807,265.511 190.337 M254.426 191.614 C 255.740 192.317,255.289 192.709,253.200 192.677 C 251.114 192.646,250.713 192.323,251.900 191.632 C 252.803 191.106,253.468 191.101,254.426 191.614 M255.971 195.854 C 256.898 197.033,257.044 198.396,256.320 199.120 C 255.096 200.344,253.633 199.073,253.613 196.767 C 253.592 194.485,254.591 194.099,255.971 195.854 M265.789 204.120 C 264.628 204.885,260.708 206.006,259.365 205.958 C 258.121 205.913,264.256 203.691,265.789 203.631 C 266.574 203.600,266.574 203.602,265.789 204.120 M129.116 206.297 C 130.499 206.375,132.659 206.374,133.916 206.295 C 135.172 206.216,134.040 206.152,131.400 206.153 C 128.760 206.153,127.732 206.218,129.116 206.297 M279.105 237.883 C 279.602 237.979,280.322 237.975,280.705 237.875 C 281.087 237.775,280.680 237.696,279.800 237.701 C 278.920 237.705,278.607 237.787,279.105 237.883 " stroke="none" fill="#f9dabd" fill-rule="evenodd"></path><path id="path6" d="M299.600 120.736 C 299.600 120.936,299.031 121.214,298.336 121.353 C 296.735 121.673,297.092 122.061,299.061 122.139 C 300.687 122.204,300.569 122.023,303.119 128.400 C 305.377 134.049,309.367 145.726,311.455 152.800 C 312.427 156.096,312.824 157.549,314.945 165.602 C 316.243 170.530,320.278 190.646,321.243 197.000 C 323.328 210.727,323.963 216.460,324.269 224.294 L 324.522 230.789 323.388 231.694 C 322.764 232.192,321.971 232.722,321.627 232.872 C 321.071 233.113,321.074 233.147,321.654 233.172 C 322.014 233.187,322.802 232.944,323.404 232.632 C 324.007 232.319,324.749 232.159,325.055 232.276 C 325.360 232.394,325.878 232.267,326.205 231.996 C 326.532 231.724,326.800 231.609,326.800 231.740 C 326.800 231.871,327.745 231.437,328.900 230.775 C 330.055 230.113,331.450 229.355,332.000 229.091 C 332.550 228.826,333.187 228.370,333.415 228.077 C 333.644 227.783,334.004 227.578,334.215 227.619 C 335.171 227.807,335.309 227.552,334.544 227.016 C 333.802 226.496,333.681 225.885,333.456 221.516 C 333.092 214.465,331.834 202.217,331.203 199.600 C 331.018 198.830,330.571 196.130,330.209 193.600 C 329.848 191.070,329.394 188.370,329.201 187.600 C 329.009 186.830,328.554 184.490,328.191 182.400 C 327.828 180.310,327.380 178.060,327.194 177.400 C 327.009 176.740,326.559 174.760,326.194 173.000 C 325.829 171.240,325.374 169.260,325.183 168.600 C 324.993 167.940,324.275 165.060,323.589 162.200 C 322.903 159.340,322.175 156.687,321.971 156.305 C 321.767 155.923,321.600 155.327,321.600 154.981 C 321.600 154.367,320.645 151.005,320.014 149.400 C 319.841 148.960,319.398 147.520,319.028 146.200 C 318.659 144.880,318.200 143.440,318.009 143.000 C 317.818 142.560,317.348 141.120,316.965 139.800 C 316.582 138.480,316.139 137.220,315.981 137.000 C 315.822 136.780,315.559 135.976,315.395 135.213 C 315.232 134.450,314.956 133.550,314.783 133.213 C 314.057 131.803,313.200 129.648,313.200 129.234 C 313.200 128.989,313.035 128.477,312.834 128.095 C 311.850 126.226,310.690 122.892,310.714 122.000 C 310.738 121.092,310.588 120.998,309.070 120.981 C 308.152 120.971,305.645 120.830,303.500 120.667 C 301.204 120.493,299.600 120.521,299.600 120.736 M251.676 157.140 C 251.168 157.283,253.498 157.400,256.854 157.400 C 260.209 157.400,262.425 157.286,261.777 157.147 C 260.224 156.814,252.853 156.808,251.676 157.140 M248.000 157.879 C 237.969 161.487,231.917 166.542,227.796 174.754 C 217.236 195.794,232.612 220.780,256.200 220.913 C 281.296 221.055,296.673 194.960,284.433 173.000 C 280.402 165.768,269.130 157.432,263.637 157.622 C 263.287 157.634,264.440 158.146,266.200 158.759 C 300.246 170.623,292.500 220.400,256.609 220.400 C 220.415 220.400,212.914 168.895,247.600 158.539 C 249.250 158.046,250.150 157.647,249.600 157.653 C 249.050 157.659,248.330 157.760,248.000 157.879 M101.217 187.190 C 100.485 187.642,100.305 188.811,101.009 188.541 C 101.515 188.347,102.151 187.218,101.898 186.964 C 101.831 186.898,101.525 186.999,101.217 187.190 M97.500 188.091 C 96.455 188.308,95.600 188.641,95.600 188.831 C 95.600 189.020,95.328 189.070,94.995 188.943 C 94.662 188.815,94.122 188.933,93.795 189.204 C 93.321 189.598,93.200 189.593,93.200 189.182 C 93.200 188.899,93.084 188.782,92.943 188.924 C 92.802 189.065,92.890 189.427,93.140 189.727 C 93.389 190.028,93.505 190.362,93.397 190.470 C 93.288 190.578,93.453 190.667,93.762 190.667 C 94.071 190.667,94.243 190.457,94.145 190.200 C 93.966 189.736,94.077 189.692,96.020 189.465 C 96.581 189.400,97.301 189.181,97.620 188.979 C 97.939 188.777,98.545 188.609,98.967 188.606 C 99.388 188.603,99.808 188.375,99.900 188.100 C 100.086 187.542,100.131 187.542,97.500 188.091 M275.475 188.781 C 277.719 190.149,278.050 193.304,276.211 195.800 C 275.725 196.460,275.018 198.080,274.641 199.400 C 273.683 202.748,272.173 205.690,270.352 207.760 C 268.658 209.685,268.471 210.414,269.429 211.371 C 270.469 212.412,270.920 212.079,270.020 210.935 L 269.183 209.870 270.091 208.853 C 270.591 208.294,271.211 207.604,271.470 207.320 C 272.636 206.038,274.505 202.195,275.074 199.908 C 275.417 198.529,275.925 197.130,276.201 196.800 C 278.479 194.081,278.387 189.678,276.027 188.414 C 274.636 187.670,274.166 187.982,275.475 188.781 M90.716 189.704 C 90.339 189.976,90.382 190.017,90.875 189.860 C 91.303 189.723,91.601 189.892,91.691 190.322 C 91.807 190.878,91.874 190.850,92.061 190.167 C 92.307 189.273,91.636 189.042,90.716 189.704 M89.426 190.677 C 89.114 191.491,89.138 191.600,89.629 191.600 C 90.571 191.600,91.227 190.500,90.412 190.287 C 89.965 190.170,89.559 190.331,89.426 190.677 M89.606 193.624 C 89.615 194.430,90.256 195.357,90.515 194.938 C 90.633 194.747,90.475 194.244,90.165 193.819 C 89.766 193.274,89.602 193.216,89.606 193.624 M242.440 197.823 C 240.758 200.672,243.535 205.600,246.821 205.600 C 247.075 205.600,248.201 206.426,249.323 207.435 C 251.494 209.387,254.142 210.884,257.400 212.002 C 259.282 212.648,259.393 212.763,259.275 213.942 C 259.175 214.939,259.277 215.145,259.772 214.955 C 261.387 214.336,259.670 211.852,257.322 211.412 C 255.364 211.045,251.739 208.996,249.800 207.161 C 248.920 206.328,247.366 205.292,246.346 204.858 C 244.597 204.113,242.841 202.311,242.258 200.664 C 242.044 200.059,242.493 198.615,243.491 196.700 C 244.004 195.715,243.136 196.642,242.440 197.823 M264.400 214.400 C 263.576 214.664,263.541 214.726,264.200 214.754 C 264.640 214.773,265.270 214.613,265.600 214.400 C 266.301 213.947,265.814 213.947,264.400 214.400 M103.600 256.438 C 103.600 256.583,103.825 256.878,104.100 257.093 C 104.790 257.633,106.453 258.009,106.177 257.563 C 106.054 257.363,105.648 257.186,105.276 257.168 C 104.860 257.149,104.792 257.059,105.100 256.935 C 105.977 256.581,105.636 256.006,104.600 256.092 C 104.050 256.137,103.600 256.293,103.600 256.438 " stroke="none" fill="#85b4c8" fill-rule="evenodd"></path><path id="path7" d="M310.698 121.700 C 310.595 121.975,310.653 122.560,310.827 123.000 C 311.085 123.651,311.149 123.559,311.172 122.500 C 311.201 121.148,311.020 120.842,310.698 121.700 M311.214 124.220 C 311.222 124.429,311.499 125.050,311.831 125.600 L 312.433 126.600 312.172 125.600 C 311.899 124.557,311.189 123.533,311.214 124.220 M313.233 129.074 C 313.184 129.782,313.990 131.743,314.231 131.502 C 314.346 131.387,314.176 130.687,313.853 129.947 C 313.530 129.206,313.251 128.813,313.233 129.074 M315.446 135.400 C 315.588 136.060,315.880 136.780,316.097 137.000 C 316.355 137.263,316.389 137.057,316.197 136.400 C 315.723 134.785,315.151 134.023,315.446 135.400 M317.446 141.200 C 317.577 141.970,317.845 142.771,318.042 142.980 C 318.547 143.516,318.450 142.874,317.773 141.200 L 317.207 139.800 317.446 141.200 M318.605 144.400 C 319.079 146.619,319.844 149.178,320.114 149.447 C 320.628 149.961,320.417 149.004,319.396 146.178 C 318.843 144.650,318.488 143.850,318.605 144.400 M320.644 151.200 C 320.780 151.970,321.054 152.870,321.251 153.200 C 321.677 153.910,321.268 151.837,320.739 150.600 C 320.508 150.060,320.477 150.256,320.644 151.200 M321.606 155.076 C 321.603 155.558,321.780 156.064,322.000 156.200 C 322.509 156.515,322.509 155.588,322.000 154.800 C 321.685 154.312,321.611 154.364,321.606 155.076 M322.650 158.400 C 322.790 159.170,323.061 160.160,323.254 160.600 C 323.494 161.149,323.524 160.961,323.350 160.000 C 323.210 159.230,322.939 158.240,322.746 157.800 C 322.506 157.251,322.476 157.439,322.650 158.400 M323.656 162.200 C 323.656 162.640,323.811 163.360,324.000 163.800 L 324.344 164.600 324.344 163.800 C 324.344 163.360,324.189 162.640,324.000 162.200 L 323.656 161.400 323.656 162.200 M324.685 166.400 C 324.927 168.365,325.591 170.039,325.557 168.600 C 325.547 168.160,325.297 167.080,325.001 166.200 L 324.464 164.600 324.685 166.400 M325.738 170.800 C 325.879 171.350,326.196 172.880,326.443 174.200 C 326.690 175.520,327.039 176.960,327.219 177.400 L 327.546 178.200 327.568 177.400 C 327.597 176.358,326.132 170.391,325.765 170.057 C 325.609 169.916,325.597 170.250,325.738 170.800 M327.680 179.200 C 327.680 179.750,327.824 180.650,328.000 181.200 L 328.320 182.200 328.320 181.200 C 328.320 180.650,328.176 179.750,328.000 179.200 L 327.680 178.200 327.680 179.200 M328.669 184.600 C 328.881 186.823,329.584 189.165,329.570 187.600 C 329.567 187.270,329.312 185.920,329.003 184.600 L 328.441 182.200 328.669 184.600 M329.592 189.233 C 329.584 189.761,330.659 197.020,331.060 199.147 C 331.159 199.668,331.335 199.998,331.452 199.881 C 331.675 199.659,330.075 189.141,329.773 188.839 C 329.678 188.744,329.596 188.922,329.592 189.233 M263.680 192.480 C 263.416 192.744,263.218 193.419,263.240 193.980 L 263.280 195.000 263.557 194.002 C 263.953 192.580,265.030 192.513,265.528 193.878 C 265.864 194.801,265.942 194.851,265.968 194.162 C 266.021 192.759,264.511 191.649,263.680 192.480 M91.200 196.291 C 91.200 196.483,91.366 196.811,91.569 197.020 C 91.771 197.229,92.129 198.030,92.364 198.800 L 92.791 200.200 92.566 198.643 C 92.375 197.310,91.200 195.289,91.200 196.291 M253.641 196.667 C 253.557 198.440,255.157 200.240,255.838 199.139 C 255.995 198.885,255.952 198.782,255.743 198.912 C 255.086 199.318,254.333 198.556,254.001 197.152 C 253.792 196.266,253.668 196.099,253.641 196.667 M93.049 202.200 C 93.442 204.573,94.017 205.752,93.732 203.600 C 93.600 202.610,93.333 201.530,93.138 201.200 C 92.918 200.827,92.884 201.205,93.049 202.200 M331.855 204.000 C 331.974 205.650,332.215 207.720,332.390 208.600 L 332.708 210.200 332.724 208.800 C 332.733 208.030,332.492 205.960,332.190 204.200 L 331.639 201.000 331.855 204.000 M94.080 206.600 C 94.080 207.040,94.224 207.850,94.400 208.400 C 94.654 209.192,94.720 209.233,94.720 208.600 C 94.720 208.160,94.576 207.350,94.400 206.800 C 94.146 206.008,94.080 205.967,94.080 206.600 M102.200 209.600 L 101.400 209.944 102.200 209.932 C 102.640 209.926,103.450 209.776,104.000 209.600 L 105.000 209.280 104.000 209.268 C 103.450 209.262,102.640 209.411,102.200 209.600 M94.927 210.600 C 94.982 211.143,95.328 211.421,96.004 211.466 C 96.839 211.520,96.858 211.500,96.125 211.341 C 95.643 211.236,95.158 210.847,95.048 210.475 C 94.902 209.989,94.869 210.024,94.927 210.600 M97.600 210.800 C 96.805 211.314,97.804 211.314,99.000 210.800 L 99.800 210.456 99.000 210.434 C 98.560 210.422,97.930 210.587,97.600 210.800 M332.886 212.600 C 332.871 213.920,333.003 215.810,333.180 216.800 L 333.500 218.600 333.510 216.600 C 333.516 215.500,333.384 213.610,333.217 212.400 L 332.913 210.200 332.886 212.600 M268.441 211.523 C 268.170 212.030,268.020 212.659,268.107 212.921 C 268.197 213.191,268.479 212.999,268.759 212.477 C 269.030 211.970,269.180 211.341,269.093 211.079 C 269.003 210.809,268.721 211.001,268.441 211.523 M259.889 212.902 C 260.185 214.150,261.136 214.807,262.576 214.760 C 263.635 214.726,263.678 214.685,262.899 214.460 C 262.403 214.317,261.475 213.706,260.837 213.102 C 259.728 212.053,259.686 212.044,259.889 212.902 M333.666 223.020 C 333.624 225.074,333.774 226.414,334.080 226.720 C 334.807 227.447,335.377 227.294,334.749 226.541 C 334.447 226.178,334.095 224.513,333.966 222.841 L 333.732 219.800 333.666 223.020 M110.000 234.000 L 109.000 234.320 110.000 234.332 C 110.550 234.338,111.360 234.189,111.800 234.000 L 112.600 233.656 111.800 233.668 C 111.360 233.674,110.550 233.824,110.000 234.000 M310.100 234.276 C 310.485 234.376,311.115 234.376,311.500 234.276 C 311.885 234.175,311.570 234.093,310.800 234.093 C 310.030 234.093,309.715 234.175,310.100 234.276 M106.000 234.800 C 105.102 235.088,105.150 235.124,106.476 235.160 C 107.288 235.182,108.064 235.020,108.200 234.800 C 108.486 234.337,107.445 234.337,106.000 234.800 M101.900 235.487 C 101.295 235.578,100.800 235.802,100.800 235.984 C 100.800 236.269,103.417 235.880,104.600 235.419 C 105.105 235.222,103.356 235.266,101.900 235.487 M101.246 239.200 C 101.265 239.530,101.424 240.250,101.600 240.800 L 101.920 241.800 101.954 240.800 C 101.973 240.250,101.813 239.530,101.600 239.200 C 101.255 238.667,101.216 238.667,101.246 239.200 M103.455 249.254 C 103.582 250.316,103.484 251.470,103.224 251.954 C 102.946 252.474,102.924 252.800,103.168 252.800 C 103.799 252.800,104.100 250.276,103.647 248.774 C 103.255 247.474,103.245 247.500,103.455 249.254 M122.100 255.076 C 122.485 255.176,123.115 255.176,123.500 255.076 C 123.885 254.975,123.570 254.893,122.800 254.893 C 122.030 254.893,121.715 254.975,122.100 255.076 " stroke="none" fill="#a6a4a8" fill-rule="evenodd"></path></g></svg>